<?xml version="1.0" encoding="UTF-8" standalone="no"?>
<!-- Created with Inkscape (http://www.inkscape.org/) -->

<svg
   width="210mm"
   height="297mm"
   viewBox="0 0 210 297"
   version="1.1"
   id="svg1"
   xml:space="preserve"
   inkscape:version="1.4 (86a8ad7, 2024-10-11)"
   sodipodi:docname="overview-simulator.svg"
   inkscape:export-filename="overview-simulator.pdf"
   inkscape:export-xdpi="96"
   inkscape:export-ydpi="96"
   xmlns:inkscape="http://www.inkscape.org/namespaces/inkscape"
   xmlns:sodipodi="http://sodipodi.sourceforge.net/DTD/sodipodi-0.dtd"
   xmlns="http://www.w3.org/2000/svg"
   xmlns:svg="http://www.w3.org/2000/svg"><sodipodi:namedview
     id="namedview1"
     pagecolor="#ffffff"
     bordercolor="#000000"
     borderopacity="0.25"
     inkscape:showpageshadow="2"
     inkscape:pageopacity="0.0"
     inkscape:pagecheckerboard="0"
     inkscape:deskcolor="#d1d1d1"
     inkscape:document-units="mm"
     inkscape:zoom="1.4815911"
     inkscape:cx="300.35278"
     inkscape:cy="221.38362"
     inkscape:window-width="3440"
     inkscape:window-height="1369"
     inkscape:window-x="-8"
     inkscape:window-y="-8"
     inkscape:window-maximized="1"
     inkscape:current-layer="layer1" /><defs
     id="defs1"><marker
       style="overflow:visible"
       id="Triangle"
       refX="0"
       refY="0"
       orient="auto-start-reverse"
       inkscape:stockid="Triangle arrow"
       markerWidth="1"
       markerHeight="1"
       viewBox="0 0 1 1"
       inkscape:isstock="true"
       inkscape:collect="always"
       preserveAspectRatio="xMidYMid"><path
         transform="scale(0.5)"
         style="fill:context-stroke;fill-rule:evenodd;stroke:context-stroke;stroke-width:1pt"
         d="M 5.77,0 -2.88,5 V -5 Z"
         id="path135" /></marker></defs><g
     inkscape:label="Layer 1"
     inkscape:groupmode="layer"
     id="layer1"><g
       id="g6"
       transform="translate(16.912923,4.643094)"><rect
         style="fill:#ffffff;stroke:#000000;stroke-width:0.297911"
         id="rect1"
         width="63.011429"
         height="30.095011"
         x="57.575161"
         y="43.579002"
         rx="0.60992187"
         ry="0.94536573" /><text
         xml:space="preserve"
         style="font-size:8.73591px;text-align:start;writing-mode:lr-tb;direction:ltr;text-anchor:start;fill:#000000;stroke:none;stroke-width:0.326482"
         x="67.522629"
         y="61.879013"
         id="text1"><tspan
           sodipodi:role="line"
           id="tspan1"
           style="fill:#000000;stroke:none;stroke-width:0.326482"
           x="67.522629"
           y="61.879013">Simulator</tspan></text></g><text
       xml:space="preserve"
       style="font-size:5.33489px;text-align:start;writing-mode:lr-tb;direction:ltr;text-anchor:start;fill:#000000;stroke:none;stroke-width:0.621373"
       x="105.92346"
       y="27.794201"
       id="text1-8"><tspan
         sodipodi:role="line"
         style="text-align:center;text-anchor:middle;fill:#000000;stroke:none;stroke-width:0.621373"
         x="105.92346"
         y="27.794201"
         id="tspan2">Green Energy</tspan><tspan
         sodipodi:role="line"
         style="text-align:center;text-anchor:middle;fill:#000000;stroke:none;stroke-width:0.621373"
         x="105.92346"
         y="34.462814"
         id="tspan3">Specification</tspan></text><text
       xml:space="preserve"
       style="font-size:5.33489px;text-align:start;writing-mode:lr-tb;direction:ltr;text-anchor:start;fill:#000000;stroke:none;stroke-width:0.621373"
       x="35.495422"
       y="61.438339"
       id="text1-8-2"><tspan
         sodipodi:role="line"
         style="text-align:center;text-anchor:middle;fill:#000000;stroke:none;stroke-width:0.621373"
         x="35.495426"
         y="61.438339"
         id="tspan2-3">Infrastructure</tspan><tspan
         sodipodi:role="line"
         style="text-align:center;text-anchor:middle;fill:#000000;stroke:none;stroke-width:0.621373"
         x="35.495422"
         y="68.106956"
         id="tspan3-2">Specification</tspan></text><text
       xml:space="preserve"
       style="font-size:5.33489px;text-align:start;writing-mode:lr-tb;direction:ltr;text-anchor:start;fill:#000000;stroke:none;stroke-width:0.621373"
       x="176.95454"
       y="61.921551"
       id="text1-8-2-8"><tspan
         sodipodi:role="line"
         style="text-align:center;text-anchor:middle;fill:#000000;stroke:none;stroke-width:0.621373"
         x="176.95454"
         y="61.921551"
         id="tspan3-2-7">Orchestration </tspan><tspan
         sodipodi:role="line"
         style="text-align:center;text-anchor:middle;fill:#000000;stroke:none;stroke-width:0.621373"
         x="176.95454"
         y="68.590164"
         id="tspan4">Method</tspan></text><g
       id="g5"
       transform="translate(20.917833,-1.7069063)"><g
         id="g4"
         transform="matrix(0.02520752,0,0,0.02520752,72.43093,10.611593)"
         style="stroke-width:16.4003">
	<polygon
   class="st0"
   points="258.714,427.031 256.198,512 329.717,512 327.209,427.031 321.334,420.494 314.237,316.461 276.427,276.142 273.303,276.473 264.589,420.494 "
   id="polygon1"
   style="stroke-width:16.4003" />
	<path
   class="st0"
   d="m 294.219,183.51 c 18.982,0 35.643,11.96 42.076,29.307 L 392.434,27.369 C 395.549,17.068 390.12,6.12 380.038,2.358 l -2.88,-1.076 c -10.082,-3.746 -21.354,0.98 -25.74,10.81 l -78.843,176.977 c 4.014,-2.209 8.44,-3.851 13.189,-4.749 2.791,-0.535 5.648,-0.81 8.455,-0.81 z"
   id="path1"
   style="stroke-width:16.4003" />
	<path
   class="st0"
   d="M 452.949,386.202 339.119,229.429 c -0.461,20.746 -15.333,39.122 -36.525,43.168 -2.776,0.534 -5.624,0.793 -8.44,0.793 -2.54,0 -5.032,-0.218 -7.476,-0.631 l 132.538,141.326 c 7.363,7.849 19.549,8.625 27.842,1.764 l 2.371,-1.958 c 8.295,-6.854 9.832,-18.974 3.52,-27.689 z"
   id="path2"
   style="stroke-width:16.4003" />
	<path
   class="st0"
   d="m 250.04,236.873 c -2.606,-13.675 1.311,-27.09 9.556,-37.075 L 70.918,243.921 c -10.486,2.452 -17.251,12.623 -15.462,23.239 l 0.509,3.034 c 1.789,10.6 11.523,18.004 22.22,16.879 L 270.916,266.869 C 260.332,260.428 252.5,249.739 250.04,236.873 Z"
   id="path3"
   style="stroke-width:16.4003" />
	<path
   class="st0"
   d="m 259.669,235.037 c 3.633,19.056 22.033,31.557 41.089,27.932 19.071,-3.633 31.572,-22.042 27.94,-41.089 -3.642,-19.064 -22.025,-31.573 -41.097,-27.932 -19.056,3.633 -31.557,22.017 -27.932,41.089 z m 31.305,-23.441 c 9.306,-1.772 18.288,4.328 20.067,13.65 1.78,9.306 -4.337,18.286 -13.651,20.059 -9.305,1.772 -18.278,-4.337 -20.059,-13.634 -1.779,-9.305 4.338,-18.295 13.643,-20.075 z"
   id="path4"
   style="stroke-width:16.4003" />
</g><g
         style="fill:none"
         id="g3"
         transform="matrix(0.47080424,0,0,0.47080424,85.972619,11.415077)"><path
           d="m 12,3 v 1 m 0,16 v 1 M 4,12 H 3 M 6.31412,6.31412 5.5,5.5 M 17.6859,6.31412 18.5,5.5 M 6.31412,17.69 5.5,18.5001 M 17.6859,17.69 18.5,18.5001 M 21,12 h -1 m -4,0 c 0,2.2091 -1.7909,4 -4,4 -2.20914,0 -4,-1.7909 -4,-4 0,-2.20914 1.79086,-4 4,-4 2.2091,0 4,1.79086 4,4 z"
           stroke="#000000"
           stroke-width="2"
           stroke-linecap="round"
           stroke-linejoin="round"
           id="path1-7" /></g></g><path
       style="fill:#ffffff;stroke:#000000;stroke-width:0.4;marker-end:url(#Triangle)"
       d="M 56.57341,63.269602 H 70.145532"
       id="path6" /><path
       style="fill:#ffffff;stroke:#000000;stroke-width:0.4;marker-end:url(#Triangle)"
       d="M 155.41419,63.269602 H 141.84207"
       id="path6-9" /><path
       style="fill:#ffffff;stroke:#000000;stroke-width:0.4;marker-end:url(#Triangle)"
       d="m 105.9938,36.622159 v 8.929028"
       id="path7" /></g><style
     type="text/css"
     id="style1">
	.st0{fill:#000000;}
</style><style
     type="text/css"
     id="style1-2">
	.st0{fill:#000000;}
</style></svg>
